<?xml version="1.0" encoding="utf-8"?>
<!-- Generator: Adobe Illustrator 26.0.3, SVG Export Plug-In . SVG Version: 6.00 Build 0)  -->
<svg version="1.1"
	 id="svg5976" inkscape:version="0.91 r13725" sodipodi:docname="bear_converted.svg" xmlns:cc="http://creativecommons.org/ns#" xmlns:dc="http://purl.org/dc/elements/1.1/" xmlns:inkscape="http://www.inkscape.org/namespaces/inkscape" xmlns:rdf="http://www.w3.org/1999/02/22-rdf-syntax-ns#" xmlns:sodipodi="http://sodipodi.sourceforge.net/DTD/sodipodi-0.dtd" xmlns:svg="http://www.w3.org/2000/svg"
	 xmlns="http://www.w3.org/2000/svg" xmlns:xlink="http://www.w3.org/1999/xlink" x="0px" y="0px" viewBox="0 0 595.3 425.2"
	 style="enable-background:new 0 0 595.3 425.2;" xml:space="preserve">
<style type="text/css">
	.st0{stroke:#000000;stroke-width:0.8;stroke-miterlimit:3.2;}
</style>
<sodipodi:namedview  bordercolor="#666666" borderopacity="1.0" id="base" inkscape:current-layer="layer1" inkscape:cx="398.925" inkscape:cy="787.99347" inkscape:document-units="px" inkscape:pageopacity="0.0" inkscape:pageshadow="2" inkscape:zoom="0.49497475" pagecolor="#ffffff" showgrid="false">
	</sodipodi:namedview>
<g id="layer1" transform="translate(0,-520.86614)" inkscape:groupmode="layer" inkscape:label="Layer 1">
	<path id="path6591_00000099657645579771260260000018198254044070897838_" inkscape:connector-curvature="0" class="st0" d="
		M207,828.8c-3.3,1.4-29,6.8-30.4,6.8c-4.4,0-13,3-17,6c-4.2,3.2-8.7,5.6-11.7,6.3c-1.1,0.3-3.2,2-4.8,3.9c-1.5,1.9-3.1,3.2-3.4,3
		c-0.4-0.2-1.1,0.3-1.8,1.2c-0.6,0.9-2.2,2.2-3.4,3c-1.3,0.8-3.1,3.1-4.2,5.1c-1.6,3.1-2.4,3.9-4.7,4.5c-1.6,0.4-3.2,0.8-3.7,0.8
		c-0.5,0-1.7,1-2.8,2.2c-2.9,3.5-3.9,3.2-3.9-1c0-2.2-0.4-3.8-0.9-4c-0.5-0.2-2.6,1.3-4.7,3.2c-2.1,2-4,3.3-4.3,3
		c-0.3-0.3,0-2,0.6-3.8c1.3-3.5,0.7-5.7-1.4-5.7c-0.7,0-2.8,1.4-4.8,3c-2,1.7-3.8,3-4.1,3c-0.3,0-0.3-1.6,0-3.6
		c0.3-2,0.6-4.6,0.7-5.8c0.1-1.2,0.5-3.4,0.8-4.7c0.5-1.9,0.3-2.4-0.6-2.4c-0.6,0-1.4,0.3-1.6,0.8c-0.5,0.7-3.4,1.1-3.4,0.4
		c0-0.2,0.7-2.1,1.5-4.2c0.8-2.1,1.5-4.8,1.5-6c0-4.8,15.2-20.9,26.7-28.3c3.7-2.4,8.8-6.3,11.3-8.6c5-4.7,8.3-7,21.9-15
		c10.9-6.3,13.1-8.1,17.4-13.9c3.9-5.3,5.5-9.7,4-11.4c-0.5-0.6-1.3-1-1.6-0.7c-0.9,0.6-0.9-0.2,0.5-6.6c1.3-6.4,0.9-9.3-1.5-10.9
		c-2.8-1.8-6.4-0.4-11.1,4.4c-4.8,4.9-9.2,7.3-13.3,7.3c-2.7,0-3.3,0.3-5.7,3.6c-1.4,2-4.6,7.5-7,12.3l-4,8
		c-0.2,0.5-0.7,0.8-1.2,0.8l-4.5,0.5c-2.9,0.3-6.8,1-8.7,1.6c-4.6,1.5-9.4,5.7-10.1,8.8c-1.8,8.5-10,23.5-14.8,27.1
		c-3.9,2.9-5.5,3.1-8.8,1.3c-2.8-1.6-3-1.6-9.3-0.4c-9.3,1.7-15,1.6-17.6-0.4c-2-1.6-2-1.8-1.5-6.2c1.6-13.2-1-31.3-8.2-57
		c-6-21.3-6.9-30.1-4.9-44.8c1-7.2,0.2-9.5-4.5-12.8c-6-4.3-9.7-12.4-8.9-19.1c1.1-9.2,6.1-10,14.4-2.2c4.5,4.2,4.8,4.3,5.2,2.8
		c0.3-0.9,0.5-2.7,0.5-4c0-4,1.5-7.7,3.9-10.1c2-1.9,3-2.3,5.8-2.3c3.7,0,5.6,0.9,9.9,5c3.3,3.2,4.5,2.8,7.4-2.3
		c1.2-2.1,3.5-5.1,5-6.5c1.5-1.4,3.6-4.3,4.7-6.4c1.1-2.1,3.4-5.6,5.3-7.9c5.7-7.1,18.6-19.9,22.1-22.1c28.4-17.7,36.9-22.7,40.9-24
		c6.2-2,11.7-4.9,21.7-11.3c4.6-2.9,11-6.5,14.1-8c3.2-1.4,7.5-3.4,9.7-4.4c3.6-1.6,13-4.3,14.4-4c0.3,0.1,1.5-0.3,2.7-0.8
		c2.6-1.1,3.5-1.1,3.5-0.1c0,0.5,0.5,0.5,1.3,0c1.7-0.9,10-2.2,9.6-1.5c-0.5,0.9,5.2,0.4,5.8-0.4c0.3-0.4,6.2-0.8,13.2-1
		c10.7-0.2,14.8-0.6,26.6-2.9c7.7-1.5,17-3.6,20.8-4.9c7.1-2.3,9.8-2.8,9-1.5c-0.6,1,1.7,0.1,8-3c3.3-1.6,4.2-1.9,2.9-0.8
		c-2.7,2.2-0.6,1.9,4.5-0.7c4.8-2.4,5.6-2.7,4.9-1.5c-0.7,1.2,1.2,0.9,7.2-1.2c8.9-3,16.4-4.7,23.7-5.2c3.7-0.3,10.2-1,14.3-1.7
		c29.9-4.7,65.9,3.6,97.4,22.6c12.2,7.3,30.8,22.2,36.6,29.2c1.7,2,6.6,6.7,10.9,10.4c12.7,10.8,14,12.4,20.9,27.3
		c3.4,7.3,7.3,16.7,8.8,21c6.2,17.8,8.7,42.6,5.3,52c-1.2,3.4-1.5,6.1-1.5,14.7c0,9-0.3,11.7-2,18.1c-1.1,4.1-3,12.8-4.3,19.2
		c-2.9,14.5-5.2,22.6-6.8,23.9c-0.7,0.6-0.8,0.8-0.3,0.5c1-0.5,0.7,3.2-0.6,8.6c-0.4,1.4-0.4,2.8,0,3c1.3,0.9,3.8,21.2,3.8,31
		c0,7.6,1.7,14.7,5.6,24.4c6.7,16.4,7.4,19.6,5,24.9c-1.7,3.7-5,6.4-14.4,11.6c-3.9,2.2-8.3,4.9-9.8,6c-3.6,2.8-14.8,7.1-22.6,8.8
		c-9.7,2-33.4,1.7-35.1-0.5c-0.6-0.7-2-1.1-4.1-1c-3.7,0.2-8-1.7-8.6-3.8c-0.8-2.7,0.6-6.1,4.1-9.6c5.9-5.9,14-8.7,24.4-8.5
		c3.8,0.1,5.1-0.2,5.1-0.9c0-2.4-2.2-5.6-7.4-10.5c-4.5-4.2-5.8-6.1-6.9-9.4c-1-3-1.5-3.8-1.9-2.8c-0.7,1.9-1.5,1.6-2.6-1
		c-1.2-2.9-2.4-2.5-3.6,1.1c-0.5,1.6-2.1,4.1-3.5,5.7c-1.5,1.7-3.7,5.7-5.3,10.1c-1.5,4-3.3,7.5-3.8,7.8c-0.6,0.3-2.4,5.8-4.1,12.1
		c-1.7,6.3-3.7,12.4-4.5,13.4c-0.8,1-3,3-4.8,4.4c-1.8,1.4-3.5,2.9-3.6,3.3c-0.1,0.4-4.3,1.1-9.3,1.6c-11.2,1-30.7,4.2-32.9,5.3
		c-1.1,0.6-6.4,0.8-17.9,0.5c-14.2-0.3-16.8-0.5-20.3-1.9c-4.7-1.8-6.9-3.6-6.9-5.5c0-0.9-0.5-1.4-1.7-1.4c-1.5,0-1.4-0.3,1.1-2.9
		c2.8-2.9,3-4.5,0.4-3.1c-2.9,1.5-2.9,0.2-0.1-2.9c3.6-4,8.7-5.4,18.9-5.4c10.8,0,17.9-2.8,21.6-8.5c2.2-3.3,2.6-10.1,1.4-24.6
		c-1.9-24.8-2.1-34.4-0.7-40.3c0.7-2.9,1.6-10.7,2-17.3c0.6-10,1.1-13.2,3-18.8c3-9.1,2.7-9.7-3.8-9c-3.9,0.4-5.3,0.3-7-0.6
		c-1.7-0.9-3.7-1.1-5.5-0.5c-3.4,1-9,0.9-14.2-0.4c-2.5-0.6-5.9-1.1-7.7-1.1c-1.7,0-4.3-0.7-5.6-1.4c-1.4-0.8-4.5-1.6-7-1.8
		c-2.5-0.2-6.2-1.1-8.2-2c-3-1.3-3.6-1.4-3.2-0.4c0.8,2,5.6,22.4,6.2,25.9c0.3,1.8,1,4.4,1.6,5.8c0.6,1.5,1.1,5.3,1.1,9.9
		c0,5.6,0.4,8.1,1.4,10.5c1.4,3.1,1.4,3.1-0.1,4.6c-1,1-1.7,2.9-1.9,5.5c-0.2,2.2-0.7,4.2-1.1,4.5c-0.4,0.3-1,3.3-1.4,6.8
		c-1.3,12-2.1,15.9-3.2,17.2c-1.1,1.2-1.1,1.6,0,4.1c1.4,3.3,1.1,4.6-2,8.5c-1.3,1.6-3,4.3-3.7,6c-0.8,1.7-2,3.6-2.7,4.1
		c-0.7,0.6-2.7,3.2-4.4,5.9c-1.7,2.7-3.7,5.4-4.4,5.9c-0.7,0.6-1.3,1.5-1.3,2s-1.4,2.2-3,3.7c-1.7,1.5-3,3-2.9,3.3
		c0.3,1.7-0.2,3.2-1,3c-0.6-0.1-0.8,0.6-0.7,2.2c0.2,2.1-0.2,2.6-3,4.3c-5.5,3.2-10.9,4.3-26.2,5.4c-18.1,1.3-16.9,1.3-21.7-0.3l0,0
		c-2.2-0.8-5.2-2.4-6.7-3.6c-2.3-1.9-3.1-2.8-4.5-5.4c-0.1-0.2-1.2,0.1-2.6,0.6c-1.4,0.5-2.7,0.6-3.1,0.2c-1.7-1.7,5-9.4,10.4-11.9
		c1.4-0.7,2.6-1.5,2.6-1.9c0-0.8,0.3-0.8-4.1,0.5c-3.5,1-3.6,1-2.3-0.1c3.1-2.4,12.7-6.5,16.1-6.9c1.9-0.2,4.8,0,6.3,0.4
		c4.2,1.2,8.6-1.3,11.1-6.3c1.7-3.4,1.9-4.6,1.8-12.1c-0.1-5.7-0.5-9.2-1.3-10.9l-1.2-2.6l0.5,4.1c0.7,6.1-0.3,4.2-1.3-2.7
		c-0.7-4.4-1-5.5-1.4-4.1c-0.5,1.8-0.5,1.7-1.1-0.8c-0.8-3.7-9.3-22.9-11.6-26.2c-1.3-1.9-2-4.1-2.2-7.1c-0.3-3.5-0.6-4.3-1.6-4.1
		c-0.8,0.1-2.3-1.9-4.9-6.8c-2.6-6.1-4.2-2.6-4.6-4.7c0.5,2.1,0.4,2.3-2.6,2.7c-1.7,0.3-3.4,1-3.9,1.5c-0.5,0.6-1.6,1-2.5,1
		c-1.6,0-3.1,0.9-8.6,5.1l-0.4,0.3C235,821.3,207.3,829.8,207,828.8"/>
	<path id="path6591_00000181794675538874643560000016656047820995040149_" inkscape:connector-curvature="0" class="st0" d="
		M203,829.8"/>
</g>
</svg>
