<?xml version="1.0" encoding="utf-8"?>
<!-- Generator: Adobe Illustrator 22.0.1, SVG Export Plug-In . SVG Version: 6.00 Build 0)  -->
<svg version="1.1" id="Layer_1" xmlns="http://www.w3.org/2000/svg" xmlns:xlink="http://www.w3.org/1999/xlink" x="0px" y="0px"
	 viewBox="0 0 500 500" style="enable-background:new 0 0 500 500;" xml:space="preserve">
<path d="M185.4,124.2c-4.5,2.9-8.9,5.6-13.1,8.4c-8.3,5.6-15.8,12.1-22.2,19.8c-3.9,4.7-7.1,9.9-10.1,15.3
	c-5.5,10-9.6,20.5-12.4,31.6c-1.9,7.5-3.7,15-4.9,22.6c-0.2,1.2-0.6,2.2-1.3,3.1c-3.4,4.6-5.7,9.7-7.6,15.1
	c-4.1,11.3-6.5,22.9-6.8,34.9c-0.2,5.6-0.3,11.2-0.2,16.8c0,7.9,1.1,15.7,2,23.6c0.2,1.8,0.3,3.7,0.2,5.5c-0.2,2.2-1.4,4-3.3,5.2
	c-1.5,1-3,1.2-4.6,0.5c-1-0.4-1.9-0.8-2.7-1.4c-8.7-6.1-16.5-13.1-22.4-22.1c-5.7-8.7-9.3-18.2-11.2-28.4c-1.4-7.3-2-14.7-2-22.2
	c0-8.6,0.3-17.2,1.2-25.7c1.2-11,3.5-21.7,7-32.2c4.4-12.9,9.5-25.6,16.2-37.5c6.6-11.8,14.6-22.5,24.6-31.6
	c5.3-4.8,11-9.1,17.4-12.4c8.4-4.4,17.1-5.2,26.1-2.7c7.9,2.2,15.4,5.4,22.8,8.9C180.6,120.6,183,122.3,185.4,124.2z"/>
<path d="M317.1,123.1c1.3-0.8,2.5-1.5,3.6-2.2c7.7-4.6,16-8,24.6-10.2c6.4-1.6,13-1.8,19.5-0.6c6.4,1.1,11.9,4.1,16.5,8.5
	c1.8,1.7,3.5,3.7,5,5.7c8.6,11.4,16.9,23.1,24.6,35.1c9.7,15.2,16.3,31.8,20.8,49.3c4.2,16.3,6,32.8,5.6,49.6
	c-0.3,13.6-1.7,27-5.2,40.2c-1.6,6-3.6,11.9-6.5,17.4c-1.6,3-3.4,5.9-5.7,8.4c-1.5,1.7-3.3,3.3-5.3,4.3c-3.7,1.9-6.9,1.4-9.7-1.6
	c-2.2-2.4-4.2-5-5.5-7.9c-1.4-3-2.7-6.1-3.7-9.3c-2.6-7.5-4.3-15.2-6.1-22.8c-2-8.6-4.2-17.1-7.3-25.4c-0.3-0.8-0.3-1.7-0.2-2.5
	c1.4-10.6,1.4-21.2,1.3-31.9c-0.2-14.4-3.7-27.9-10.2-40.7c-4.6-9-9.4-17.9-15.4-26.2c-9.7-13.5-21.7-24.4-35.4-33.7
	C320.7,125.5,319,124.4,317.1,123.1z"/>
<path d="M271.8,190c0.3,0.5,0.5,0.9,0.7,1.3c5.5,11.2,11,22.3,16.4,33.5c1.6,3.4,3,6.8,4.1,10.4c0.5,1.7,0.4,3.2-0.6,4.8
	c-2.7,4.3-5.2,8.7-8,12.9c-4.2,6.5-8,13.2-11.3,20.2c-0.6,1.3-1.3,2.6-2,3.8c-0.4,0.8-1,1.1-1.9,1.2c-11.2,0.4-22.3,0.9-33.5,1.3
	c-7,0.2-13.9-0.3-20.7-2c-0.4-0.1-0.8-0.2-1.2-0.3c-2.2-0.5-3.6-1.7-4.6-3.8c-4.3-9-8.7-18-13-27.1c-1.3-2.8-2.3-5.6-2.9-8.7
	c-0.4-2.3-0.2-4.5,0.9-6.7c4.9-9.1,9.8-18.3,15.6-26.9c2.4-3.7,5.2-7.2,7.7-10.8c0.5-0.7,1-0.9,1.9-0.9c5.5,0.1,11.1,0.2,16.6,0.3
	c7.9,0.1,15.9,0.2,23.8-0.6c3.1-0.3,6.2-1,9.4-1.5C270,190.4,270.8,190.2,271.8,190z"/>
<path d="M211.5,282.6c1.5,0.4,3,0.8,4.4,1.1c7.1,1.5,14.4,1.9,21.7,1.6c9.2-0.4,18.4-0.8,27.6-1.2c3.2-0.1,2.5-0.5,4,2.4
	c3.6,6.8,7.2,13.5,10.9,20.3c3.1,5.7,5.9,11.6,7.9,17.8c0.6,1.8,0.4,3.2-0.4,4.9c-4.1,8.2-8,16.5-10.9,25.2c-1,2.9-1.7,5.9-2.6,8.8
	c-0.2,0.5-0.3,1.1-0.5,1.7c-2.2,0.3-4.4,0.5-6.5,0.8c-10.8,1.2-21.6,1.4-32.4,1.5c-5.4,0.1-10.7,0-16.1,0.2c-1.7,0-2.7-0.5-3.5-1.9
	c-3.1-5.1-6.4-10.2-9.4-15.3c-2.8-4.7-5.5-9.4-8.2-14.2c-1.5-2.7-2.6-5.5-3.9-8.3c-0.9-2-0.9-3.8,0.1-5.8c2.3-4.8,4.5-9.7,6.7-14.6
	c3.4-7.7,6.8-15.5,10.2-23.2C210.9,283.8,211.2,283.2,211.5,282.6z"/>
<path d="M286.8,110.9c-11.6-3.2-23.3-5-35.1-5.2c-11.9-0.2-23.5,1.6-35,4.6c-0.2-0.4-0.4-0.7-0.4-1.1c-1.5-6.6-3.2-13.2-4.3-19.9
	c-1.4-8-1.3-16.2-0.8-24.3c0.3-4.2,0.9-8.4,2-12.4c1.1-4.1,2.8-8.1,4.9-11.8c3.7-6.6,8-12.7,13.1-18.2c5.3-5.7,11.6-9.9,19.1-12.3
	c1.6-0.5,3.1-0.5,4.4,0.5c2.6,2,5.2,4,7.7,6.2c8.5,7.6,14.3,17.1,18.8,27.4c3.6,8.2,5.7,16.8,7.2,25.5c1.2,7.2,1.9,14.4,1.4,21.7
	c-0.4,5.9-0.9,11.7-2.3,17.4C287.2,109.6,287,110.2,286.8,110.9z"/>
<path d="M157.4,385.8c1,1.1,1.8,2,2.6,2.8c8.6,9.9,17.8,19.3,27.3,28.4c6.5,6.3,13.4,12.1,20.7,17.6c2.2,1.6,4.4,3.1,6.8,4.6
	c-0.2,0.5-0.3,1-0.6,1.4c-0.8,1.7-1.6,3.4-2.5,5.1c-3.9,8-9.9,14-17.6,18.3c-6.3,3.5-12.9,6.6-19.6,9.4c-1.5,0.6-3,1.3-4.4,1.9
	c-2.3,1-4.4,2.4-6.1,4.1c-3.8,3.8-8.4,6.4-13.5,8.1c-2.7,0.9-5.5,1.7-8.3,2.2c-2.5,0.5-5,0.1-7.5-0.8c-3.5-1.3-6.1-3.5-8-6.8
	c-5.2-9.4-7.4-19.4-6.2-30.1c0.8-7.4,2.1-14.7,5.1-21.6c1.4-3.2,2.8-6.3,4.7-9.2c2.9-4.7,6.1-9.2,9.4-13.7
	c5.1-6.8,10.3-13.6,16.1-19.8C156.2,387.2,156.7,386.6,157.4,385.8z"/>
<path d="M284.9,437.8c21.6-14.1,40.2-31.3,55.7-52c2.5,2.7,5.1,5.2,7.3,7.9c3.7,4.5,7.6,8.8,11.6,13c9.1,9.7,14.8,21.2,17.3,34.2
	c1.2,6.5,2.2,13,1.7,19.6c-0.4,5-1.4,9.8-2.6,14.6c-0.5,2-1,4-1.8,5.9c-2.2,5.7-6.9,7.5-11.7,7.1c-2.2-0.2-4.5-0.6-6.6-1.3
	c-3.8-1.2-7.5-2.9-10.8-5.3c-1.5-1.1-3.1-2.2-4.7-3.3c-1.6-1.1-3.4-1.8-5.3-2c-6.8-0.6-12.8-3.5-18.2-7.3
	c-8-5.7-15.5-11.9-22.5-18.8C290.7,446.4,287.7,442.2,284.9,437.8z"/>
<path d="M278.5,113.4c1.2,4.2,2.3,8.5,3.7,12.7c2.4,7.3,4.9,14.5,7.4,21.7c0.3,0.8,0,1.3-0.3,1.9c-2.6,5.3-5.3,10.5-7.8,15.8
	c-2,4.4-3.7,9-5.6,13.6c-0.1,0.2-0.2,0.4-0.2,0.6c-0.7,3-2.8,4-5.7,4.7c-10.9,2.7-22.1,2.4-33.2,2.3c-5.6,0-11.2-0.3-16.8-0.3
	c-2.7,0-4.3-0.9-5.2-3.5c-1.3-3.6-2.9-7.1-4.3-10.7c-2.5-6.2-5-12.5-7.5-18.8c-0.4-0.9-0.7-1.8-1.2-2.7c-0.6-1-0.6-2-0.1-3.1
	c0.7-1.5,1.3-3.1,2.1-4.5c4.3-8.7,8.7-17.4,13.7-25.8c0.6-2.4,2.4-3.2,4.5-3.6c4.1-0.8,8.2-1.7,12.4-2.4c6.3-1.1,12.7-1.3,19.1-1.2
	c2.8,0.1,5.5-0.1,8.3,0.1C267.4,111.1,272.9,112.1,278.5,113.4z"/>
<path d="M202.8,399.9c0.4-0.8,0.8-1.4,1.1-2.1c4.2-7.7,8.5-15.3,12.7-23c0.6-1.1,1.3-1.4,2.4-1.4c4.8,0,9.7-0.1,14.5-0.1
	c10.1,0,20.1-0.4,30.2-1.1c2.5-0.2,4.9-0.5,7.4-0.8c1-0.2,1.7,0,2.2,1c0.4,0.8,1,1.4,1.5,2.1c5.9,8.6,11.9,17.1,17.8,25.7
	c0.1,0.2,0.2,0.4,0.4,0.7c-0.3,0.4-0.5,0.8-0.8,1.2c-8.2,10-15.4,20.7-22.9,31.2c-2.9,4.1-6,8.2-8.9,12.3c-2.6,3.8-5.1,7.6-7.7,11.5
	c-0.4,0.6-0.9,1.2-1.4,1.7c-1.7,1.5-4.2,1.2-5.4-0.8c-0.6-0.9-0.9-2-1.3-3c-1.5-4.2-3.1-8.4-4.6-12.6c-0.2-0.5-0.6-1-1-1.4
	c-3.9-4-7.9-7.9-11.6-12.1c-7.8-8.9-15.5-18-23.2-26.9C203.8,401.2,203.4,400.6,202.8,399.9z"/>
<path d="M279.6,191.9c0.9,0.3,1.8,0.6,2.8,0.8c8.6,2.3,17.1,4.6,25.7,7c9.4,2.6,18.8,5.5,27.9,9.2c1.7,0.7,3.5,1.3,5.2,1.7
	c1,0.3,1.4,0.7,1.6,1.7c1.9,7.9,3.4,15.9,4.3,24c0.8,6.7,1.3,13.4,1.4,20.2c0,0.6,0,1.2,0,2.1c-0.7-0.3-1.3-0.5-1.8-0.7
	c-15.2-6.8-30.4-13.7-45.7-20.5c-1.3-0.6-1.9-1.3-2.2-2.7c-0.8-4-2.4-7.8-4.2-11.5c-4.7-9.5-9.3-19-14-28.5
	c-0.4-0.8-0.8-1.6-1.2-2.5C279.5,192.1,279.6,192,279.6,191.9z"/>
<path d="M276.4,279.8c3.4-7.3,6.8-14.2,11-20.7c3.5-5.4,7.2-10.7,10.2-16.4c0.1-0.2,0.3-0.3,0.5-0.6c1.5,0.7,3.1,1.3,4.6,2
	c10.8,5,21.5,10,32.5,14.6c4.1,1.7,8.1,3.6,12.1,5.4c0.8,0.4,1.1,0.9,1,1.7c-0.2,1.8-0.5,3.5-0.6,5.3c-0.1,1.8-0.1,3.7-0.3,5.5
	c-0.6,6.1-1.7,12.2-3.1,18.2c-0.1,0.3-0.2,0.5-0.4,1c-2.3-0.6-4.6-1-6.9-1.6c-6.7-1.8-13.3-3.7-20-5.3c-10.3-2.4-20.7-4.4-31.1-6.6
	C282.8,281.5,279.7,280.6,276.4,279.8z"/>
<path d="M160,298.4c-3.5-20.1-3.8-40.1-2.5-60.3c10-1.5,19.7-3,29.7-2.9c0.1,0.9,0.2,1.7,0.3,2.5c0.6,3.9,1.8,7.6,3.5,11.2
	c4.3,9,8.6,17.9,13,26.9c0.6,1.3,1.5,2.6,2.3,3.9c-8,2.4-15.7,5.4-23.3,8.6C175.4,291.6,167.8,295,160,298.4z"/>
<path d="M330.6,338.5c-1.5-0.4-3-0.8-4.5-1.4c-7.2-2.8-14.4-5.6-21.5-8.4c-2.7-1.1-5.5-2.1-8.2-3.1c-1.4-0.5-2.3-1.2-2.7-2.8
	c-1.9-6.6-5-12.6-8.2-18.6c-3.1-5.7-6.1-11.3-9.2-17c-0.3-0.5-0.5-1-0.8-1.7c0.5,0,0.9-0.1,1.2,0c13.2,3.6,26.7,6.1,40.1,8.9
	c3.6,0.8,7.1,1.8,10.7,2.7c5,1.3,10,2.7,15,4.1C342.7,303.6,332.8,334.9,330.6,338.5z"/>
<path d="M293.7,330.3c11.7,4.4,22.9,9.7,34.9,13.3c-0.2,0.6-0.4,1.1-0.6,1.6c-4,9.8-9,19.2-15.2,27.8c-5,6.9-9.7,14-14.6,21
	c-0.4,0.6-0.8,1.1-1.3,1.7c-6.3-9-12.4-17.9-18.5-26.5c0.8-2.4,1.6-4.7,2.2-7c1.6-6.4,4.1-12.6,6.8-18.6c1.7-3.8,3.6-7.6,5.4-11.4
	C293,331.6,293.3,331.1,293.7,330.3z"/>
<path d="M279.4,186.1c1.5-3.8,3-7.4,4.4-10.9c2.9-7.3,6.2-14.5,10-21.4c0.3-0.5,0.6-1.1,1-1.7c1.3,0.3,2.5,0.7,3.7,0.9
	c6.2,1.4,12.5,2.8,18.7,4.2c1.2,0.3,2,0.9,2.7,1.9c7.1,9.9,12.1,20.9,16.4,32.3c1.4,3.8,2.7,7.7,4,11.6c0.2,0.5,0.3,1.1,0.5,1.8
	c-0.6-0.1-1-0.2-1.4-0.4c-14.8-6-30.1-10.2-45.5-14C289,189.1,284.2,187.5,279.4,186.1z"/>
<path d="M209.8,193.8c-8.2,11.3-14.7,23.5-21.3,35.7c-10.1-0.2-20.2,1.2-30.2,2.7c-1.3-6.2,7.2-41.6,12.2-51
	c0.5,0.1,1.1,0.3,1.7,0.5c5.2,1.8,10.3,3.6,15.5,5.4c6.5,2.3,13.1,4.4,19.8,6.1C208.2,193.2,208.9,193.5,209.8,193.8z"/>
<path d="M188.4,331c6.6,14.3,15.1,27.2,23.5,40.6c-4.3,7.7-8.6,15.6-13.2,23.8c-0.5-0.6-0.8-1.1-1.1-1.4c-3.5-4.1-6.4-8.7-9-13.5
	c-3.8-7-6.3-14.5-9.2-21.8c-1.7-4.2-3.3-8.5-5-12.7c-0.3-0.8-0.3-1.3,0.4-2c4.3-4.1,8.6-8.3,12.9-12.5
	C188,331.3,188.2,331.2,188.4,331z"/>
<path d="M202.9,287.4c-1.9,4.4-3.7,8.8-5.7,13.1c-2.7,6.1-5.5,12.1-8.3,18.2c-0.5,1.2-1.1,2.3-1.4,3.5c-0.3,1.4-1.1,2.4-2.1,3.4
	c-3.9,3.8-7.8,7.7-11.7,11.5c-0.5,0.5-1,0.9-1.7,1.5c-4.3-11.3-7.3-22.8-10.6-34.3c13.6-6.4,27.2-12.4,41.2-17.3
	C202.7,287.2,202.8,287.3,202.9,287.4z"/>
<path d="M300.4,401.1c6.5-9.3,12.8-18.5,19.3-27.8c4.6,4,9.2,7.9,13.7,11.7c-0.1,0.3-0.1,0.5-0.2,0.5c-3.8,4.9-7.4,9.9-12.1,13.9
	c-2.5,2.2-5,4.4-7.2,7c-1.7,2-3.7,3.7-5.7,5.6c-0.6-0.7-1.1-1.3-1.7-2c-1.3,1.5-2.6,2.8-3.9,4.3c0.4,0.6,0.7,1.1,1.1,1.8
	c-0.6,0.6-1.3,1.2-1.9,1.8c-7.7,6.8-15.9,13.1-24.3,19.1c-0.7,0.5-1.4,1-2.2,1.3c-0.7,0.3-1.5,0.4-2.4,0.6
	c0.9-2.6,20.5-29.4,23.8-32.8c1.7,2.3,3.3,4.6,5.1,7.2c1.5-1.3,2.8-2.6,4.3-3.9C304.3,406.4,302.4,403.8,300.4,401.1z"/>
<path d="M151.4,241.4c-8.9,1.4-17.6,1.8-26.5,2.5c0.7-12,2.9-23.5,6.4-34.8c8,0.9,15.8,1.7,23.9,2.6
	C153.2,221.5,152,231.3,151.4,241.4z"/>
<path d="M146,353.3c-5.2-10.7-9.6-21.5-13-32.9c8.2-2.6,16.4-4.9,24.6-7.2c3,9.7,6,19.2,9.1,28.9C160.2,346.1,153.5,350.2,146,353.3
	z"/>
<path d="M204.2,129.6c-1.7,3.3-3.3,6.5-5,9.8c-1.1,2.2-2.1,4.5-3.1,6.7c-1,2.4-0.7,4.7,0.4,7.1c2.1,4.7,4,9.6,5.9,14.4
	c2.6,6.4,5.2,12.8,7.8,19.2c0.1,0.2,0.1,0.3,0.2,0.8c-0.6-0.1-1.2-0.2-1.7-0.3c-6.5-1.5-12.8-3.6-19.1-5.8c-5.3-1.9-10.6-3.7-16-5.6
	c-0.2-0.1-0.4-0.2-0.8-0.4c8.3-16.8,19.5-31.6,31.1-46.1C204.1,129.5,204.2,129.6,204.2,129.6z"/>
<path d="M131.3,314.7c-3.1-10.2-4.2-20.6-5.5-31.1c8.6-1.5,17.1-3.1,25.8-4.6c0.8,9.6,1.9,19.1,4.6,28.5
	C147.9,309.9,139.7,312.2,131.3,314.7z"/>
<path d="M353.2,237.9c-1-9.4-2.6-18.5-4.9-27.7c8.4-0.4,16.5,0,24.7-0.1c3.4,10.4,3.7,21.1,3.5,32
	C368.7,240.7,361,239.3,353.2,237.9z"/>
<path d="M151.1,247.5c0,8.4,0,16.8,0,25.4c-8.4,1.8-17,3.2-25.9,4.7c-0.5-9.4-1.5-18.5-0.7-27.8
	C133.3,249.1,142.1,248.3,151.1,247.5z"/>
<path d="M371.7,204.3c-8.5,0-16.6,0-24.6,0c-3-8.4-6.1-16.8-9.1-25.4c6.6-1.9,13.5-3.9,20.4-5.9
	C364.7,182.6,368.5,193.1,371.7,204.3z"/>
<path d="M347.8,305.4c0.4,0.3,0.7,0.4,1,0.6c4.7,3.6,9.4,7.3,14.1,10.9c0.8,0.6,1,1.2,0.7,2.2c-3.2,10.7-7.3,21-11.4,31.3
	c-0.1,0.4-0.3,0.7-0.6,1.1c-0.3-0.2-0.6-0.3-0.8-0.5c-4.3-3.4-8.7-6.8-13-10.3c-1.1-0.9-1.1-0.9-0.6-2.3
	c3.8-10.4,7.1-20.9,10.2-31.5C347.4,306.4,347.6,305.9,347.8,305.4z"/>
<path d="M144,175c7.1,1,14.1,1.9,21.2,2.9c-1.7,4.6-3.4,9.2-4.9,13.8c-1.5,4.6-2.6,9.3-4,14c-7.7-0.7-15.3-1.2-23.1-2.5
	C136.4,193.6,140,184.3,144,175z"/>
<path d="M376.4,248c-0.1,9.5-1,18.8-2.5,28.2c-6.9-2-12.9-5.7-20-7.1c0.6-8.4,0.5-16.7-0.2-25.1C361.4,245.3,368.9,246.6,376.4,248z
	"/>
<path d="M365.6,311.7c-5.4-4.1-10.7-8.3-16.3-12.6c1.8-7.8,3.4-15.8,4.1-24.1c6.9,1.7,12.9,5.3,19.4,7.1
	C372.5,288,367.2,309.5,365.6,311.7z"/>
<path d="M149.1,358.7c6.6-3.6,13.2-7.2,19.9-10.8c2.9,7.5,5.8,15,8.8,22.7c-5.1,3.8-10.3,7.2-15.7,10.6
	C157.6,373.5,153.3,366,149.1,358.7z"/>
<path d="M337.1,380.4c-4.8-4.1-9.4-8-14.1-12c4.4-7.2,7.8-15,11.2-22.8c5.1,4,10,7.8,15,11.7C345.6,365.2,342.1,373.1,337.1,380.4z"
	/>
<path d="M167.7,172.3c-6.8-0.9-13.9-1.6-20.9-2.9c0.2-0.6,0.3-1,0.5-1.4c3.6-7.3,8.6-13.6,14.4-19.2c0.5-0.5,0.9-1,1.8-0.8
	c5.4,1.3,10.7,2.6,16.2,3.9C175.7,158.8,171.7,165.5,167.7,172.3z"/>
<path d="M354.5,167.9c-0.6,0.2-0.9,0.3-1.2,0.4c-5.1,1.5-10.3,3-15.4,4.4c-0.9,0.3-1.9,0.3-2.7,0.4c-2.3-4-4.4-8-6.7-11.7
	c-2.3-3.7-4.9-7.2-7.4-11c0.3-0.2,0.6-0.5,0.9-0.6c3.7-1.4,7.4-2.8,11.1-4.3c0.9-0.4,1.5-0.1,2.1,0.5c3.4,3.7,7,7.3,10.4,11.1
	c2.7,3,5.1,6.1,7.7,9.1C353.7,166.8,354,167.3,354.5,167.9z"/>
<path d="M180,376.2c4.2,8.8,8.8,17.3,15.7,24.3c-2,3.4-3.8,6.7-5.8,10.2c-8.4-8.1-17.4-15.3-24.3-24.8
	C170.4,382.6,175.1,379.5,180,376.2z"/>
<path d="M286.7,120.3c10.1,9.2,19.1,19,26.8,30.2c-0.5,0-0.9,0.1-1.2,0c-5.2-1.2-10.4-2.4-15.6-3.6c-1-0.2-1.5-0.7-1.8-1.6
	c-0.7-2-1.5-4-2.2-6c-1.9-5.7-3.7-11.5-5.5-17.2C287,121.6,286.9,121.1,286.7,120.3z"/>
<path d="M229.7,440c-1.4-0.7-2.9-1.3-4.2-2.2c-7.9-5-15.3-10.7-22.7-16.4c-2.4-1.8-4.7-3.7-7-5.6c-0.4-0.4-0.8-0.8-1.4-1.3
	c1.7-3.1,3.4-6,5.1-9.1c10.2,11.5,20.2,22.9,30.3,34.2C229.8,439.8,229.8,439.9,229.7,440z"/>
<path d="M203,121.2c-6.7,8.7-13.1,17.1-19.7,25.7c-4.6-1.1-9.4-2.2-14.7-3.5C179.9,135.4,190.6,127.2,203,121.2z"/>
<path d="M317.3,145.6c-6.7-9.4-14.2-18-22.5-26.1c0.3,0.1,0.7,0.1,1,0.3c2.1,1,4.2,1.9,6.2,3c8.8,4.8,17.2,10.1,25,16.2
	c0.7,0.5,1.3,1.1,2.2,1.8C325.1,142.5,321.3,144,317.3,145.6z"/>
</svg>
