<svg id="Layer_1" data-name="Layer 1" xmlns="http://www.w3.org/2000/svg" viewBox="0 0 1024 1024"><defs><style>.cls-1{fill:#fff;stroke:#000;stroke-miterlimit:10;stroke-width:9px;}</style></defs><g id="Layer_1-2" data-name="Layer 1"><path class="cls-1" d="M214.14,627.82h6.6c7,0,12.7-4.59,12.7-10.25V416.9c0-5.66-5.69-10.26-12.7-10.26h-6.6c-7,0-12.7,4.6-12.7,10.26V617.57C201.44,623.23,207.13,627.82,214.14,627.82Z"/><path class="cls-1" d="M321.44,746.48h0c-8.84,0-16-5.78-16-12.91V301.71c0-7.14,7.16-12.92,16-12.92h0c8.84,0,16,5.78,16,12.92V733.57C337.44,740.7,330.28,746.48,321.44,746.48Z"/><path class="cls-1" d="M425.44,677.87h0c-8.84,0-16-5.78-16-12.92V370.32c0-7.14,7.16-12.92,16-12.92h0c8.84,0,16,5.78,16,12.92V665C441.44,672.09,434.28,677.87,425.44,677.87Z"/><path class="cls-1" d="M526.55,580.6h12.78c5.31,0,9.61-3.47,9.61-7.76V461.62c0-4.28-4.3-7.75-9.61-7.75H526.55c-5.31,0-9.61,3.47-9.61,7.75V572.84C516.94,577.13,521.24,580.6,526.55,580.6Z"/><path class="cls-1" d="M636.94,746.08h0c-8.84,0-16-5.78-16-12.92V301.3c0-7.13,7.16-12.91,16-12.91h0c8.84,0,16,5.78,16,12.91V733.16C652.94,740.3,645.78,746.08,636.94,746.08Z"/><path class="cls-1" d="M740.94,677.46h0c-8.84,0-16-5.77-16-12.91V369.92c0-7.14,7.16-12.92,16-12.92h0c8.84,0,16,5.78,16,12.92V664.55C756.94,671.69,749.78,677.46,740.94,677.46Z"/><path class="cls-1" d="M839.67,628.22h6.6c7,0,12.7-4.59,12.7-10.25V417.3c0-5.66-5.69-10.25-12.7-10.25h-6.6c-7,0-12.7,4.59-12.7,10.25V618C827,623.63,832.66,628.22,839.67,628.22Z"/></g></svg>