<?xml version="1.0" encoding="utf-8"?>
<!-- Generator: Adobe Illustrator 26.0.3, SVG Export Plug-In . SVG Version: 6.00 Build 0)  -->
<svg version="1.1" id="Layer_1" xmlns="http://www.w3.org/2000/svg" xmlns:xlink="http://www.w3.org/1999/xlink" x="0px" y="0px"
	 viewBox="0 0 1024 1024" style="enable-background:new 0 0 1024 1024;" xml:space="preserve">
<style type="text/css">
	.st0{fill:#FFFFFF;stroke:#000000;stroke-width:32;stroke-miterlimit:10;}
</style>
<g id="Layer_1_00000078726755224271252650000012012866196679718558_">
	<path class="st0" d="M198.9,654.5h6.6c7,0,12.7-5.7,12.7-12.7V393.2c0-7-5.7-12.7-12.7-12.7h-6.6c-7,0-12.7,5.7-12.7,12.7v248.6
		C186.2,648.8,191.9,654.5,198.9,654.5z"/>
	<path class="st0" d="M306.2,801.5L306.2,801.5c-8.8,0-16-7.2-16-16v-535c0-8.8,7.2-16,16-16l0,0c8.8,0,16,7.2,16,16v535
		C322.2,794.3,315.1,801.5,306.2,801.5z"/>
	<path class="st0" d="M410.2,716.5L410.2,716.5c-8.8,0-16-7.2-16-16v-365c0-8.8,7.2-16,16-16l0,0c8.8,0,16,7.2,16,16v365
		C426.2,709.3,419.1,716.5,410.2,716.5z"/>
	<path class="st0" d="M511.3,596h12.8c5.3,0,9.6-4.3,9.6-9.6V448.6c0-5.3-4.3-9.6-9.6-9.6h-12.8c-5.3,0-9.6,4.3-9.6,9.6v137.8
		C501.7,591.7,506,596,511.3,596z"/>
	<path class="st0" d="M621.7,801L621.7,801c-8.8,0-16-7.2-16-16V250c0-8.8,7.2-16,16-16l0,0c8.8,0,16,7.2,16,16v535
		C637.7,793.8,630.6,801,621.7,801z"/>
	<path class="st0" d="M725.7,716L725.7,716c-8.8,0-16-7.2-16-16V335c0-8.8,7.2-16,16-16l0,0c8.8,0,16,7.2,16,16v365
		C741.7,708.8,734.6,716,725.7,716z"/>
	<path class="st0" d="M824.5,655h6.6c7,0,12.7-5.7,12.7-12.7V393.7c0-7-5.7-12.7-12.7-12.7h-6.6c-7,0-12.7,5.7-12.7,12.7v248.6
		C811.8,649.3,817.5,655,824.5,655z"/>
</g>
</svg>
