<svg id="Layer_1" data-name="Layer 1" xmlns="http://www.w3.org/2000/svg" viewBox="0 0 1024 1024"><defs><style>.cls-1{fill:#fff;stroke:#000;stroke-miterlimit:10;stroke-width:32px;}</style></defs><g id="Layer_1-2" data-name="Layer 1"><path class="cls-1" d="M198.94,654.5h6.6a12.71,12.71,0,0,0,12.7-12.7V393.2a12.71,12.71,0,0,0-12.7-12.7h-6.6a12.71,12.71,0,0,0-12.7,12.7V641.8A12.71,12.71,0,0,0,198.94,654.5Z"/><path class="cls-1" d="M306.24,801.5h0a16,16,0,0,1-16-16v-535a16,16,0,0,1,16-16h0a16,16,0,0,1,16,16v535A16,16,0,0,1,306.24,801.5Z"/><path class="cls-1" d="M410.24,716.5h0a16,16,0,0,1-16-16v-365a16,16,0,0,1,16-16h0a16,16,0,0,1,16,16v365A16,16,0,0,1,410.24,716.5Z"/><path class="cls-1" d="M511.35,596h12.78a9.61,9.61,0,0,0,9.61-9.61V448.61a9.61,9.61,0,0,0-9.61-9.61H511.35a9.61,9.61,0,0,0-9.61,9.61V586.39A9.61,9.61,0,0,0,511.35,596Z"/><path class="cls-1" d="M621.74,801h0a16,16,0,0,1-16-16V250a16,16,0,0,1,16-16h0a16,16,0,0,1,16,16V785A16,16,0,0,1,621.74,801Z"/><path class="cls-1" d="M725.74,716h0a16,16,0,0,1-16-16V335a16,16,0,0,1,16-16h0a16,16,0,0,1,16,16V700A16,16,0,0,1,725.74,716Z"/><path class="cls-1" d="M824.46,655h6.6a12.71,12.71,0,0,0,12.7-12.7V393.7a12.71,12.71,0,0,0-12.7-12.7h-6.6a12.71,12.71,0,0,0-12.7,12.7V642.3A12.71,12.71,0,0,0,824.46,655Z"/></g></svg>