<?xml version="1.0" encoding="utf-8"?>
<!-- Generator: Adobe Illustrator 26.0.3, SVG Export Plug-In . SVG Version: 6.00 Build 0)  -->
<svg version="1.1" id="Layer_1" xmlns="http://www.w3.org/2000/svg" xmlns:xlink="http://www.w3.org/1999/xlink" x="0px" y="0px"
	 viewBox="0 0 1024 1024" style="enable-background:new 0 0 1024 1024;" xml:space="preserve">
<style type="text/css">
	.st0{display:none;}
	.st1{display:inline;}
	.st2{fill:#FFFFFF;stroke:#000000;stroke-width:37;stroke-miterlimit:10;}
	.st3{fill:#FFFFFF;stroke:#000000;stroke-width:32;stroke-miterlimit:10;}
</style>
<g id="Sound" class="st0">
	<g class="st1">
		<path class="st2" d="M845.79,160.64c22.85,10.17,65.69,27.64,102.24,72.23c30.32,37,43.34,78.78,50.19,101.71"/>
		<path class="st2" d="M794.78,219.07c22.85,10.17,65.69,27.64,102.24,72.23c30.32,37,43.34,78.78,50.19,101.71"/>
		<path class="st2" d="M26.26,330.61c8.85-25.92,24.03-74.52,63.2-116.16c32.5-34.55,69.34-49.54,89.55-57.42"/>
		<path class="st2" d="M78.17,388c8.85-25.92,24.03-74.52,63.2-116.16c32.5-34.55,69.34-49.54,89.55-57.42"/>
	</g>
</g>
<g id="Layer_1_00000078726755224271252650000012012866196679718558_">
	<path class="st3" d="M212.2,726.25h6.6c7.01,0,12.7-5.69,12.7-12.7v-248.6c0-7.01-5.69-12.7-12.7-12.7h-6.6
		c-7.01,0-12.7,5.69-12.7,12.7v248.6C199.5,720.56,205.19,726.25,212.2,726.25z"/>
	<path class="st3" d="M319.5,873.25L319.5,873.25c-8.84,0-16-7.16-16-16v-535c0-8.84,7.16-16,16-16l0,0c8.84,0,16,7.16,16,16v535
		C335.5,866.09,328.34,873.25,319.5,873.25z"/>
	<path class="st3" d="M423.5,788.25L423.5,788.25c-8.84,0-16-7.16-16-16v-365c0-8.84,7.16-16,16-16l0,0c8.84,0,16,7.16,16,16v365
		C439.5,781.09,432.34,788.25,423.5,788.25z"/>
	<path class="st3" d="M524.61,667.75h12.78c5.31,0,9.61-4.3,9.61-9.61V520.36c0-5.31-4.3-9.61-9.61-9.61h-12.78
		c-5.31,0-9.61,4.3-9.61,9.61v137.78C515,663.45,519.3,667.75,524.61,667.75z"/>
	<path class="st3" d="M635,872.75L635,872.75c-8.84,0-16-7.16-16-16v-535c0-8.84,7.16-16,16-16l0,0c8.84,0,16,7.16,16,16v535
		C651,865.59,643.84,872.75,635,872.75z"/>
	<path class="st3" d="M739,787.75L739,787.75c-8.84,0-16-7.16-16-16v-365c0-8.84,7.16-16,16-16l0,0c8.84,0,16,7.16,16,16v365
		C755,780.59,747.84,787.75,739,787.75z"/>
	<path class="st3" d="M837.73,726.75h6.6c7.01,0,12.7-5.69,12.7-12.7v-248.6c0-7.01-5.69-12.7-12.7-12.7h-6.6
		c-7.01,0-12.7,5.69-12.7,12.7v248.6C825.03,721.06,830.72,726.75,837.73,726.75z"/>
</g>
</svg>
