<svg id="Layer_1" data-name="Layer 1" xmlns="http://www.w3.org/2000/svg" viewBox="0 0 1024 1024"><defs><style>.cls-1{fill:#333733;}.cls-2{fill:#515751;stroke:#ccc;stroke-miterlimit:10;stroke-width:12px;}.cls-3{fill:#b3b3b3;}.cls-4{fill:#4d504d;}.cls-5{fill:#4d4d4d;}.cls-6{fill:#ccc;}</style></defs><path class="cls-1" d="M987.12,666.26a649.53,649.53,0,0,0,7.17-89.48A3299.13,3299.13,0,0,1,510.1,612.32,3299.56,3299.56,0,0,1,28.4,576.78a433.93,433.93,0,0,0,7.06,92.48q1.83,9.88,4.26,20.21c1.11,4.74,22.18,112.93,87.75,176.89,94,91.65,241.46,97.24,383.87,97.24,196.26,0,403.92-19.17,465.11-246.28a473.65,473.65,0,0,0,10.21-48.12C986.78,668.11,986.94,667.1,987.12,666.26Z"/><ellipse class="cls-2" cx="511.58" cy="577" rx="477.94" ry="42.96"/><path class="cls-3" d="M979.16,707c0-.1,1-3.89,1-4a15.87,15.87,0,0,1,.45-2.28,1.4,1.4,0,0,1,.08-.51h0C882.37,721.88,777,734.84,530.12,737c-201.88,1.8-361.42-9.92-487.73-35.85L45.18,712C163,735.64,309,747.21,490.5,747.21q19.58,0,39.7-.18c185.39-1.65,318.67-8.11,447.89-36"/><path class="cls-3" d="M986.38,672.24c.1-1.41.23-2.79.4-4-129,28.39-265.21,34.94-456.84,36.64C332,706.63,167.6,694.81,41.2,669.76c-1.8-.36-4.11-.72-5.89-1.08l.85,4.35,1.26,6.17,1.83.37C158.09,703.12,310.18,715,491.81,715q18.88,0,38.22-.17c190.36-1.69,326.31-8.17,455-36h0v-.05c.05-.2.12-.38.18-.58a.08.08,0,0,1,0,0,11.71,11.71,0,0,0,.37-1.32c.13-.66.21-1.32.31-2s.19-1.32.33-2C986.28,672.66,986.33,672.45,986.38,672.24Z"/><rect class="cls-4" x="346.38" y="322" width="612.25" height="97" rx="7.46"/><path d="M351.38,322H538.71a.29.29,0,0,1,.29.29v96.22a.49.49,0,0,1-.49.49H351.38a5.38,5.38,0,0,1-5.38-5.38V327.38A5.38,5.38,0,0,1,351.38,322Z"/><path class="cls-5" d="M538.55,322.5c-.75,15.89-1.12,32.58-1,50,.13,19.25.85,28.61,2,46"/><path class="cls-6" d="M536,418.5l-.25-3.78c-1-15.2-1.62-24.38-1.74-42.2-.11-16.6.22-33.43,1-50h7c-.77,16.52-1.11,33.45-1,50,.12,17.61.72,26.7,1.73,41.77l.27,4.25"/><path class="cls-5" d="M564.06,322.5c-.74,15.89-1.12,32.58-1,50,.13,19.25.85,28.61,2,46"/><path class="cls-6" d="M561.55,418.5l-.25-3.78c-1-15.2-1.62-24.38-1.74-42.2-.11-16.6.22-33.43,1-50h7c-.77,16.52-1.11,33.45-1,50,.12,17.61.72,26.7,1.73,41.77l.27,4.25"/></svg>