<svg id="Layer_1" data-name="Layer 1" xmlns="http://www.w3.org/2000/svg" viewBox="0 0 1024 1024"><defs><style>.cls-1{fill:#333733;}.cls-2{fill:#515751;stroke:#ccc;stroke-miterlimit:10;stroke-width:12px;}.cls-3{fill:#b3b3b3;}.cls-4{fill:#4d504d;}.cls-5{fill:#4d4d4d;}.cls-6{fill:#ccc;}</style></defs><path class="cls-1" d="M987.48,668.72a649.53,649.53,0,0,0,7.17-89.48,3299.13,3299.13,0,0,1-484.19,35.54,3298.27,3298.27,0,0,1-481.7-35.54,433.93,433.93,0,0,0,7.06,92.48q1.83,9.88,4.26,20.21c1.12,4.74,22.19,112.93,87.76,176.89,93.95,91.65,241.45,97.24,383.87,97.24,196.25,0,403.92-19.17,465.1-246.28A473.65,473.65,0,0,0,987,671.66C987.14,670.57,987.3,669.57,987.48,668.72Z"/><ellipse class="cls-2" cx="511.94" cy="579.46" rx="477.94" ry="42.96"/><path class="cls-3" d="M979.52,709.5c0-.11,1-3.89,1-4a15.6,15.6,0,0,1,.45-2.28,1.28,1.28,0,0,1,.09-.52h0c-98.32,21.64-203.71,34.6-450.57,36.8-201.88,1.79-361.42-9.93-487.73-35.85l2.79,10.77c117.77,23.68,263.82,35.26,445.33,35.26q19.56,0,39.7-.18c185.38-1.65,318.66-8.11,447.88-36"/><path class="cls-3" d="M986.74,674.7c.1-1.4.23-2.79.4-4-129,28.39-265.21,34.94-456.84,36.65C332.4,709.09,168,697.28,41.56,672.22c-1.8-.36-4.11-.72-5.89-1.08l.85,4.36,1.27,6.17,1.82.36c118.84,23.56,270.93,35.47,452.56,35.47q18.88,0,38.22-.17c190.36-1.7,326.31-8.17,455-36h0a.13.13,0,0,1,0-.06c0-.19.11-.38.17-.57,0,0,0,0,0,0a11.88,11.88,0,0,0,.37-1.33c.13-.66.21-1.32.31-2s.19-1.33.33-2C986.64,675.12,986.69,674.91,986.74,674.7Z"/><rect class="cls-4" x="342.3" y="269.83" width="612.25" height="97" rx="7.46" transform="translate(59.13 736.09) rotate(-61.48)"/><path d="M457,454.35H644.37a.29.29,0,0,1,.29.29v96.22a.49.49,0,0,1-.49.49H457a5.38,5.38,0,0,1-5.38-5.38V459.73a5.38,5.38,0,0,1,5.38-5.38Z" transform="translate(-155.39 744.41) rotate(-61.48)"/><path class="cls-5" d="M551.84,395.54c13.61,8.24,28.09,16.54,43.46,24.75,17,9.08,25.55,12.91,41.37,20.2"/><path class="cls-6" d="M635,443.58,631.55,442c-13.83-6.37-22.19-10.21-37.9-18.61-14.64-7.83-29.27-16.16-43.48-24.76,0,0,.05,0,0,0l3.34-6.15c14.15,8.57,28.86,17,43.44,24.74,15.53,8.31,23.81,12.12,37.53,18.43l3.86,1.79"/><path class="cls-5" d="M564,373.12c13.61,8.25,28.09,16.54,43.46,24.75,17,9.08,25.55,12.92,41.37,20.21"/><path class="cls-6" d="M647.18,421.16l-3.45-1.58c-13.83-6.37-22.19-10.22-37.9-18.62-14.64-7.83-29.27-16.15-43.48-24.76h0l3.34-6.15c14.15,8.57,28.86,16.94,43.44,24.74,15.53,8.3,23.81,12.11,37.53,18.43l3.86,1.78"/><path d="M309.08,500.64a5.42,5.42,0,0,1-6.85-4c-2.87-13.36-7.06-46.29,12.84-73.64,11.84-16.26,27.79-27.11,46.42-31.62a5.43,5.43,0,0,1,6.62,4.38l1.36,8.07a5.42,5.42,0,0,1-4,6.15c-14,3.53-26,11.82-35,24.2-15.32,21-12.11,46.94-9.79,57.82a5.44,5.44,0,0,1-3.76,6.35Z"/><path d="M100.46,511.54a5,5,0,0,1-6-3.92c-2.73-14.41-5.13-37.94-4-64,1.63-38.44,10-72.57,24.89-101.44,41.89-81.24,94.51-104.38,117-114.26h0a5,5,0,0,1,6.52,2.45l3.82,8.18a5,5,0,0,1-2.51,6.68l-.19.08C219.31,254.39,171,275.63,132.2,350.9,103.1,407.34,107.85,476.21,113,503.71a5,5,0,0,1-3.77,5.79Z"/><path d="M213,501.83a5.52,5.52,0,0,1-6.7-4.32c-4.3-21.69-8.38-66.35,16.05-111.73,18.72-34.78,46.23-54.92,63.73-64.95a5.52,5.52,0,0,1,7.63,2.23l3.23,6.16a5.52,5.52,0,0,1-2.15,7.36c-15.61,9-40,26.91-56.59,57.73-21.69,40.3-18.12,80.05-14.29,99.48a5.51,5.51,0,0,1-4.14,6.42Z"/><path d="M761.64,510.73a5.41,5.41,0,0,0,6.77-4.17c2.62-13.42,6.17-46.42-14.26-73.38-12.14-16-28.31-26.56-47-30.71A5.42,5.42,0,0,0,700.6,407l-1.21,8.09a5.42,5.42,0,0,0,4.14,6.07c14.05,3.26,26.23,11.32,35.48,23.51,15.72,20.75,13,46.71,10.9,57.63a5.45,5.45,0,0,0,3.88,6.28Z"/><path d="M970.43,517.59a5,5,0,0,0,6-4c2.45-14.46,4.39-38,2.78-64.06-2.38-38.4-11.41-72.37-26.85-100.94-43.46-80.42-96.51-102.53-119.16-112h0a5,5,0,0,0-6.48,2.58L823,247.42a5,5,0,0,0,2.64,6.63l.18.07c20.8,8.67,69.51,29,109.77,103.48,30.18,55.86,26.77,124.81,22.12,152.41a5,5,0,0,0,3.88,5.72Z"/><path d="M857.75,510.06a5.53,5.53,0,0,0,6.62-4.44c3.87-21.78,7.09-66.51-18.21-111.41-19.4-34.41-47.29-54-65-63.7a5.52,5.52,0,0,0-7.58,2.38l-3.12,6.22a5.53,5.53,0,0,0,2.3,7.32c15.78,8.68,40.51,26.13,57.69,56.62,22.47,39.88,19.67,79.68,16.22,99.18a5.53,5.53,0,0,0,4.27,6.35Z"/></svg>