<svg id="Layer_1" data-name="Layer 1" xmlns="http://www.w3.org/2000/svg" viewBox="0 0 1024 1024"><defs><style>.cls-1{fill:#333733;}.cls-2{fill:#515751;stroke:#ccc;stroke-miterlimit:10;stroke-width:12px;}.cls-3{fill:#b3b3b3;}.cls-4{fill:#4d504d;}.cls-5{fill:#4d4d4d;}.cls-6{fill:#ccc;}</style></defs><path class="cls-1" d="M988.22,654.68a649.81,649.81,0,0,0,7.17-89.49,3297.39,3297.39,0,0,1-484.18,35.55,3298.05,3298.05,0,0,1-481.7-35.55,433.92,433.92,0,0,0,7.05,92.49q1.84,9.87,4.26,20.21c1.12,4.73,22.19,112.93,87.76,176.89C222.54,946.43,370,952,512.45,952c196.26,0,403.92-19.16,465.11-246.28a475.84,475.84,0,0,0,10.2-48.12C987.89,656.52,988,655.52,988.22,654.68Z"/><ellipse class="cls-2" cx="512.68" cy="565.41" rx="477.94" ry="42.96"/><path class="cls-3" d="M980.27,695.45c0-.11,1-3.89,1-4a14.61,14.61,0,0,1,.45-2.28,1.29,1.29,0,0,1,.08-.52h0c-98.31,21.63-203.71,34.59-450.57,36.79-201.88,1.8-361.41-9.93-487.72-35.85l2.78,10.77c117.78,23.68,263.82,35.26,445.33,35.26q19.56,0,39.7-.18c185.39-1.65,318.67-8.11,447.89-36"/><path class="cls-3" d="M987.49,660.65c.09-1.4.22-2.78.4-4-129,28.4-265.22,34.94-456.84,36.65-197.91,1.77-362.34-10-488.75-35.11-1.79-.35-4.1-.71-5.88-1.07l.85,4.35,1.26,6.17,1.83.36c118.84,23.56,270.92,35.47,452.56,35.47q18.87,0,38.22-.17c190.36-1.7,326.31-8.17,455-36h0v0c.05-.2.11-.39.17-.58a.06.06,0,0,0,0,0,10.37,10.37,0,0,0,.37-1.32c.13-.66.22-1.33.32-2s.19-1.33.32-2Z"/><rect class="cls-4" x="343.04" y="255.79" width="612.25" height="97" rx="7.46" transform="translate(71.86 729.4) rotate(-61.48)"/><path d="M457.78,440.3H645.11a.29.29,0,0,1,.29.29v96.22a.49.49,0,0,1-.49.49H457.78a5.38,5.38,0,0,1-5.38-5.38V445.68a5.38,5.38,0,0,1,5.38-5.38Z" transform="translate(-142.66 737.73) rotate(-61.48)"/><path class="cls-5" d="M552.59,381.49c13.6,8.24,28.09,16.54,43.45,24.75,17,9.08,25.55,12.92,41.37,20.21"/><path class="cls-6" d="M635.74,429.53,632.3,428c-13.84-6.37-22.19-10.22-37.91-18.62-14.64-7.83-29.27-16.16-43.48-24.76h0l3.35-6.15c14.15,8.57,28.85,16.94,43.43,24.74,15.53,8.3,23.82,12.11,37.53,18.43l3.87,1.78"/><path class="cls-5" d="M564.77,359.08c13.6,8.24,28.09,16.54,43.45,24.75,17,9.07,25.55,12.91,41.37,20.2"/><path class="cls-6" d="M647.92,407.12l-3.44-1.59c-13.84-6.37-22.19-10.21-37.91-18.61-14.64-7.83-29.27-16.16-43.48-24.76,0,0,0,0,0,0l3.35-6.15c14.15,8.57,28.85,16.95,43.43,24.74,15.53,8.31,23.82,12.12,37.53,18.43l3.87,1.79"/><path d="M309.83,486.59a5.41,5.41,0,0,1-6.85-4c-2.88-13.37-7.07-46.3,12.84-73.65,11.83-16.26,27.79-27.1,46.41-31.61a5.44,5.44,0,0,1,6.63,4.38l1.35,8.06a5.41,5.41,0,0,1-4,6.15c-14,3.53-26,11.83-35,24.2-15.31,21.05-12.1,46.94-9.79,57.83a5.44,5.44,0,0,1-3.75,6.35Z"/><path d="M101.21,497.49a5,5,0,0,1-6-3.91c-2.74-14.41-5.13-37.95-4-64,1.63-38.45,10-72.58,24.89-101.44C158,246.9,210.56,223.76,233,213.88h0a5,5,0,0,1,6.53,2.46l3.82,8.18a5,5,0,0,1-2.52,6.67l-.18.08c-20.63,9.08-68.93,30.32-107.74,105.58-29.1,56.44-24.35,125.31-19.16,152.82a5,5,0,0,1-3.78,5.79Z"/><path d="M213.73,487.78a5.53,5.53,0,0,1-6.71-4.31c-4.29-21.7-8.37-66.36,16.06-111.74,18.72-34.78,46.23-54.92,63.73-65a5.52,5.52,0,0,1,7.62,2.24l3.24,6.15a5.54,5.54,0,0,1-2.15,7.37c-15.62,9-40,26.91-56.6,57.73-21.69,40.3-18.11,80-14.29,99.47a5.52,5.52,0,0,1-4.14,6.43Z"/><path d="M762.39,496.69a5.42,5.42,0,0,0,6.77-4.17c2.61-13.42,6.17-46.42-14.27-73.39-12.14-16-28.31-26.56-47-30.7a5.43,5.43,0,0,0-6.54,4.5l-1.2,8.09a5.4,5.4,0,0,0,4.13,6.07c14.05,3.26,26.24,11.32,35.48,23.52,15.72,20.74,13,46.7,10.91,57.63a5.43,5.43,0,0,0,3.87,6.27Z"/><path d="M971.18,503.54a5,5,0,0,0,6-4c2.45-14.46,4.39-38,2.78-64.05-2.38-38.41-11.41-72.37-26.85-100.94C909.6,254.1,856.54,232,833.89,222.54h0a5,5,0,0,0-6.48,2.58l-3.66,8.25a5,5,0,0,0,2.64,6.63l.19.08c20.8,8.67,69.5,29,109.76,103.47,30.19,55.87,26.77,124.81,22.12,152.41a5,5,0,0,0,3.89,5.72Z"/><path d="M858.49,496a5.52,5.52,0,0,0,6.62-4.44c3.88-21.78,7.09-66.5-18.21-111.4-19.39-34.41-47.29-54-65-63.71a5.52,5.52,0,0,0-7.58,2.39l-3.11,6.21a5.52,5.52,0,0,0,2.29,7.32c15.79,8.68,40.52,26.13,57.7,56.63,22.47,39.87,19.66,79.68,16.22,99.18a5.51,5.51,0,0,0,4.26,6.34Z"/></svg>