<?xml version="1.0" encoding="utf-8"?>
<!-- Generator: Adobe Illustrator 26.0.3, SVG Export Plug-In . SVG Version: 6.00 Build 0)  -->
<svg version="1.1" id="Layer_1" xmlns="http://www.w3.org/2000/svg" xmlns:xlink="http://www.w3.org/1999/xlink" x="0px" y="0px"
	 viewBox="0 0 1024 1024" style="enable-background:new 0 0 1024 1024;" xml:space="preserve">
<style type="text/css">
	.st0{fill:none;stroke:#000000;stroke-width:51;stroke-miterlimit:10;}
	.st1{fill:#FFFFFF;stroke:#000000;stroke-width:51;stroke-miterlimit:10;}
</style>
<g>
	<line class="st0" x1="508.7" y1="394.4" x2="508.7" y2="330.2"/>
	<line class="st0" x1="662.5" y1="436.2" x2="690.1" y2="398.9"/>
	<path class="st1" d="M534.5,322H483c-0.2,0-0.4,0.2-0.4,0.4l0,0c0,0.2,0.2,0.4,0.4,0.4h51.5c0.2,0,0.4-0.2,0.4-0.4l0,0
		C534.9,322.2,534.7,322,534.5,322z"/>
	<path class="st1" d="M709.6,401.9l-29.2-19.1c-0.2-0.1-0.4-0.1-0.5,0.1l0,0c-0.1,0.2-0.1,0.4,0.1,0.5l29.2,19.1
		c0.2,0.1,0.4,0.1,0.5-0.1l0,0C709.8,402.2,709.8,402,709.6,401.9z"/>
</g>
<circle class="st1" cx="508.7" cy="648" r="249.1"/>
<g>
	<path class="st1" d="M509.1,652.9L509.1,652.9c-0.2,0-0.4-0.2-0.4-0.4V486c0-0.2,0.2-0.4,0.4-0.4l0,0c0.2,0,0.4,0.2,0.4,0.4v166.5
		C509.4,652.7,509.3,652.9,509.1,652.9z"/>
	<path class="st1" d="M664,652.5L664,652.5c0,0.2-0.2,0.4-0.4,0.4H509.1c-0.2,0-0.4-0.2-0.4-0.4v0c0-0.2,0.2-0.4,0.4-0.4h154.6
		C663.9,652.1,664,652.3,664,652.5z"/>
</g>
<path d="M66.1,445.4l-9.7-0.9c-3-0.3-5.2-3.1-4.7-6.1c2.7-17.8,11.4-48.2,28.4-83.6c15.5-32.1,43.5-79.6,89.1-123.7
	c67.2-65.1,132.3-84.9,171.2-96.7l0,0c2.8-0.8,5.7,0.7,6.6,3.5l2.9,9.3c0.9,2.8-0.7,5.7-3.5,6.6l0,0c-39.6,12-99.4,30.2-163,91.9
	C109.4,317.3,77.4,404.5,71.8,441C71.4,443.7,68.9,445.7,66.1,445.4z"/>
<path d="M154.6,425.6l-8.9-2.5c-3-0.8-4.7-4-3.8-6.9c10.1-33.8,30.6-81.3,72.5-124.7c29.1-30.2,65-54.5,104.1-70.5
	c2.9-1.2,6.2,0.2,7.3,3.1l3.3,8.6c1.1,2.8-0.3,6-3.1,7.1c-36.4,14.9-69.9,37.6-97,65.7c-39,40.5-58.2,84.7-67.6,116.3
	C160.5,424.7,157.5,426.4,154.6,425.6z"/>
<path d="M235.8,417.5l-8.6-3.2c-2.9-1.1-4.4-4.4-3.3-7.3c10.3-25.7,26-49.2,45.8-68.2c15.5-14.9,33.4-27.1,53-36.2
	c2.8-1.3,6.2,0,7.4,2.9l3.6,8.4c1.2,2.8-0.1,6-2.8,7.2c-17.5,8.1-33.4,19-47.2,32.3c-17.6,16.9-31.7,37.9-40.9,60.8
	C241.8,417.2,238.7,418.6,235.8,417.5z"/>
<path d="M957,437.7l9.7-0.6c3-0.2,5.2-2.9,4.9-5.9c-2.1-17.8-9.7-48.2-25.5-83.8c-14.3-32.3-40.6-80.3-84.4-125.6
	C797,155.1,733,133.3,694.7,120.3h0c-2.7-0.9-5.7,0.5-6.6,3.3l-3.1,9.2c-0.9,2.7,0.5,5.7,3.3,6.6l0,0
	c38.9,13.2,97.6,33.2,158.8,96.4c71,73.4,100.1,161,104.4,197.3C951.8,435.9,954.2,437.9,957,437.7z"/>
<path d="M874.5,413l8.9-2.1c3-0.7,4.8-3.8,4-6.8c-8.9-33.9-27.8-81.6-67.9-126c-27.9-30.9-62.8-56.2-101-73.3
	c-2.8-1.3-6.1,0-7.3,2.9l-3.6,8.4c-1.2,2.8,0.1,5.9,2.8,7.2c35.7,16,68.1,39.5,94.2,68.3c37.4,41.4,55,85.9,63.3,117.5
	C868.7,412,871.6,413.7,874.5,413z"/>
<path d="M797.8,400.3l8.7-2.9c3-1,4.5-4.2,3.5-7.1c-9.4-25.8-24.3-49.6-43.3-69.1c-15-15.3-32.2-28-51.4-37.6
	c-2.8-1.4-6.2-0.2-7.5,2.6l-3.9,8.3c-1.3,2.7-0.1,5.9,2.5,7.2c17.1,8.6,32.5,19.9,45.8,33.5c17,17.4,30.3,38.6,38.7,61.7
	C791.9,399.7,795,401.2,797.8,400.3z"/>
</svg>
