<svg id="Layer_1" data-name="Layer 1" xmlns="http://www.w3.org/2000/svg" viewBox="0 0 1024 1024"><defs><style>.cls-1{fill:none;}.cls-1,.cls-2,.cls-3,.cls-4{stroke:#000;stroke-miterlimit:10;}.cls-1,.cls-2{stroke-width:51px;}.cls-2,.cls-4{fill:#fff;}.cls-3{fill:#d4d4d4;stroke-width:45px;}.cls-4{stroke-width:40px;}</style></defs><line class="cls-1" x1="508.73" y1="394.42" x2="508.73" y2="330.22"/><line class="cls-1" x1="662.51" y1="436.23" x2="690.13" y2="398.9"/><path class="cls-2" d="M534.49,322H483a.37.37,0,0,0-.38.37h0a.38.38,0,0,0,.38.38h51.51a.37.37,0,0,0,.37-.38h0A.36.36,0,0,0,534.49,322Z"/><path class="cls-2" d="M709.59,401.89l-29.2-19.07a.36.36,0,0,0-.51.11h0a.37.37,0,0,0,.11.52l29.2,19.06a.35.35,0,0,0,.51-.11h0A.37.37,0,0,0,709.59,401.89Z"/><circle class="cls-3" cx="508.73" cy="648.03" r="249.13"/><path class="cls-4" d="M509.09,652.87h0a.36.36,0,0,1-.36-.35V486a.36.36,0,0,1,.36-.36h0a.36.36,0,0,1,.36.36V652.52A.36.36,0,0,1,509.09,652.87Z"/><path class="cls-4" d="M664,652.48v0a.35.35,0,0,1-.35.35H509.08a.35.35,0,0,1-.35-.35v0a.35.35,0,0,1,.35-.35H663.66A.35.35,0,0,1,664,652.48Z"/><path d="M264.44,384.88a5.42,5.42,0,0,1-6.85-4c-2.87-13.36-7.06-46.29,12.84-73.64,11.83-16.26,27.79-27.11,46.42-31.62a5.43,5.43,0,0,1,6.62,4.38l1.36,8.07a5.42,5.42,0,0,1-4,6.15c-14,3.53-26,11.82-35,24.2-15.32,21-12.11,46.94-9.8,57.82a5.43,5.43,0,0,1-3.75,6.35Z"/><path d="M55.82,395.78a5,5,0,0,1-6-3.92c-2.73-14.41-5.13-37.94-4-64,1.63-38.44,10-72.57,24.89-101.44,41.89-81.24,94.51-104.38,117-114.26h0a5,5,0,0,1,6.53,2.45L198,122.8a5,5,0,0,1-2.51,6.68l-.19.08c-20.62,9.07-68.92,30.31-107.73,105.58C58.46,291.58,63.21,360.45,68.39,388a5,5,0,0,1-3.77,5.79Z"/><path d="M168.34,386.07a5.52,5.52,0,0,1-6.7-4.31c-4.3-21.7-8.38-66.36,16.05-111.74,18.72-34.78,46.23-54.92,63.73-64.95a5.53,5.53,0,0,1,7.63,2.23l3.23,6.16a5.53,5.53,0,0,1-2.15,7.36c-15.61,9-40,26.91-56.59,57.73-21.7,40.3-18.12,80.05-14.29,99.48a5.51,5.51,0,0,1-4.15,6.42Z"/><path d="M774.74,387.61a5.42,5.42,0,0,0,6.77-4.17c2.61-13.42,6.17-46.42-14.26-73.38-12.15-16-28.31-26.56-47-30.71a5.43,5.43,0,0,0-6.54,4.51l-1.2,8.08a5.41,5.41,0,0,0,4.14,6.08c14,3.26,26.23,11.32,35.47,23.51,15.72,20.75,13,46.7,10.91,57.63a5.42,5.42,0,0,0,3.88,6.27Z"/><path d="M983.53,394.47a5,5,0,0,0,6-4c2.45-14.46,4.39-38,2.78-64.06C989.88,288,980.85,254,965.41,225.44,922,145,868.9,122.91,846.24,113.46h0a5,5,0,0,0-6.48,2.58l-3.65,8.26a5,5,0,0,0,2.64,6.62l.18.08c20.8,8.67,69.5,29,109.76,103.47,30.19,55.87,26.78,124.82,22.12,152.42a5,5,0,0,0,3.89,5.71Z"/><path d="M870.84,386.94a5.54,5.54,0,0,0,6.63-4.44c3.87-21.78,7.08-66.51-18.22-111.41-19.39-34.41-47.29-54-65-63.7a5.52,5.52,0,0,0-7.59,2.38L783.58,216a5.54,5.54,0,0,0,2.29,7.33c15.79,8.68,40.52,26.13,57.7,56.62,22.47,39.87,19.66,79.68,16.22,99.18a5.5,5.5,0,0,0,4.26,6.34Z"/></svg>