<svg id="Layer_1" data-name="Layer 1" xmlns="http://www.w3.org/2000/svg" viewBox="0 0 1024 1024"><defs><style>.cls-1{fill:none;}.cls-1,.cls-2,.cls-3,.cls-4{stroke:#000;stroke-miterlimit:10;}.cls-1,.cls-2{stroke-width:51px;}.cls-2,.cls-4{fill:#fff;}.cls-3{fill:#d4d4d4;stroke-width:45px;}.cls-4{stroke-width:40px;}</style></defs><line class="cls-1" x1="508.29" y1="381.12" x2="508.29" y2="316.92"/><line class="cls-1" x1="662.07" y1="422.93" x2="689.7" y2="385.6"/><path class="cls-2" d="M534.05,308.71H482.54a.37.37,0,0,0-.38.37h0a.38.38,0,0,0,.38.38h51.51a.37.37,0,0,0,.37-.38h0A.36.36,0,0,0,534.05,308.71Z"/><path class="cls-2" d="M709.15,388.59,680,369.52a.36.36,0,0,0-.51.11h0a.37.37,0,0,0,.11.52l29.2,19.06a.35.35,0,0,0,.51-.11h0A.37.37,0,0,0,709.15,388.59Z"/><circle class="cls-3" cx="508.29" cy="634.73" r="249.13"/><path class="cls-4" d="M508.65,639.57h0a.36.36,0,0,1-.36-.35V472.71a.36.36,0,0,1,.36-.36h0a.36.36,0,0,1,.36.36V639.22A.36.36,0,0,1,508.65,639.57Z"/><path class="cls-4" d="M663.57,639.18v0a.35.35,0,0,1-.35.35H508.64a.35.35,0,0,1-.35-.35v0a.35.35,0,0,1,.35-.35H663.22A.35.35,0,0,1,663.57,639.18Z"/></svg>